<svg id="belectric_weiss" xmlns="http://www.w3.org/2000/svg" width="233.754" height="28.217" viewBox="0 0 233.754 28.217">
  <path id="Контур_4043" data-name="Контур 4043" d="M34.381,27.2a10.15,10.15,0,0,1-4.7,2.766,18.051,18.051,0,0,1-4.7.553H18.336a9.782,9.782,0,0,1,.277-1.66A24.087,24.087,0,0,0,18.89,23.6V11.986a11.489,11.489,0,0,0-.277-3.6c-.277-.83-.83-1.107-1.936-1.107H16.4L17.23,5.9h9.959c2.49,0,3.873.277,4.979,1.383A5.407,5.407,0,0,1,34.1,11.433a4.461,4.461,0,0,1-1.66,3.6,8.635,8.635,0,0,1-3.32,1.936h0A7.327,7.327,0,0,1,33,17.8a5.509,5.509,0,0,1,3.043,4.979,5.048,5.048,0,0,1-1.66,4.426m-8.3-9.129h-2.49l.277-1.107.277-.83c1.936,0,2.49,0,3.6-.553a4.155,4.155,0,0,0,3.043-4.149c0-2.766-1.936-4.426-5.256-4.426a12.7,12.7,0,0,0-2.766.277V25.264c0,1.383.277,1.936.553,2.213.553.553,1.383.83,3.043.83,3.6,0,6.086-2.213,6.086-5.256,0-3.32-2.213-4.979-6.363-4.979" transform="translate(15.966 -3.964)" fill="#3b4d62"/>
  <path id="Контур_4044" data-name="Контур 4044" d="M42.781,27.754,42.5,29.137l-.553,1.383H26.736a9.782,9.782,0,0,1,.277-1.66A24.088,24.088,0,0,0,27.29,23.6V11.986a11.489,11.489,0,0,0-.277-3.6c-.277-.83-.83-1.107-1.936-1.107H24.8L25.63,5.9H41.121l-.553,1.107L40.015,8.39l.277.553h-.553c-.553-.83-1.107-.83-1.936-1.107a14.016,14.016,0,0,0-3.6-.553H31.439l-.277,4.426v4.149h4.426a22.363,22.363,0,0,0,4.149-.277v2.766H31.163v6.916c0,1.383.277,1.936.553,2.213.553.553,1.383.83,3.6.83a14.614,14.614,0,0,0,3.6-.277,3.932,3.932,0,0,0,1.66-.553A15.868,15.868,0,0,0,42.5,26.371l.553.277Z" transform="translate(30.803 -3.964)" fill="#3b4d62"/>
  <path id="Контур_4045" data-name="Контур 4045" d="M50,27.754l-.277,1.383-.277,1.383H34.236a9.782,9.782,0,0,1,.277-1.66A24.089,24.089,0,0,0,34.79,23.6V11.986a11.489,11.489,0,0,0-.277-3.6c-.277-.83-.83-1.107-1.936-1.107H32.3L33.13,5.9h5.533c0,1.107-.277,1.936-.277,2.49V25.541c0,1.383.277,1.936.553,2.213.83.553,1.936.553,4.149.553a14.614,14.614,0,0,0,3.6-.277,3.932,3.932,0,0,0,1.66-.553,4.236,4.236,0,0,0,1.936-1.383l.553.277Z" transform="translate(44.051 -3.964)" fill="#3b4d62"/>
  <path id="Контур_4046" data-name="Контур 4046" d="M57.3,27.754l-.277,1.383-.277,1.383H41.536a9.782,9.782,0,0,1,.277-1.66A24.088,24.088,0,0,0,42.09,23.6V11.986a11.489,11.489,0,0,0-.277-3.6c-.277-.83-.83-1.107-1.936-1.107H39.6L40.43,5.9H55.921l-.553,1.107L54.815,8.39v.553h-.553c-.553-.83-1.107-.83-1.936-1.107a14.016,14.016,0,0,0-3.6-.553H45.963l-.277,4.426v4.149h4.426a22.363,22.363,0,0,0,4.149-.277v2.766H45.686v6.916c0,1.383.277,1.936.553,2.213.553.553,1.383.83,3.6.83a14.614,14.614,0,0,0,3.6-.277,3.932,3.932,0,0,0,1.66-.553,15.868,15.868,0,0,0,1.936-1.107l.553.277Z" transform="translate(56.945 -3.964)" fill="#3b4d62"/>
  <path id="Контур_4047" data-name="Контур 4047" d="M69.507,7.813,68.954,9.2V10.3H68.4a8.779,8.779,0,0,0-6.916-2.766c-6.363,0-10.235,3.873-10.235,10.512s4.426,11.065,10.789,11.065a13.886,13.886,0,0,0,3.32-.553,7.876,7.876,0,0,0,3.873-1.66l.553.277-.277.83-.553,1.383L68.677,30.5a9.734,9.734,0,0,1-3.32.553,18.263,18.263,0,0,1-3.873.277,18.5,18.5,0,0,1-7.192-1.383A12.605,12.605,0,0,1,47.1,18.325a11.8,11.8,0,0,1,4.7-9.682C54.569,6.43,58.165,5.6,62.868,5.6a13.469,13.469,0,0,1,3.32.277,24.55,24.55,0,0,1,3.873.83Z" transform="translate(70.192 -4.493)" fill="#3b4d62"/>
  <path id="Контур_4048" data-name="Контур 4048" d="M78.284,7.083l-.553,1.66V9.3h-.553A6.934,6.934,0,0,0,75.241,8.19a3.509,3.509,0,0,0-1.66-.277c-1.106-.277-1.936-.277-4.979-.277l-.277,4.426v11.9c0,3.32.277,5.256.83,6.639h-4.7a4.867,4.867,0,0,0,.277-1.66,24.088,24.088,0,0,0,.277-5.256V7.636h-2.49a15,15,0,0,0-4.7.553A3.527,3.527,0,0,0,56.153,9.3H55.6v-.83l.277-1.66V5.7h1.66c3.6,0,6.639.277,9.405.277s6.363,0,10.235-.277h1.66Z" transform="translate(85.206 -4.317)" fill="#3b4d62"/>
  <path id="Контур_4049" data-name="Контур 4049" d="M87.537,30.244H81.728c-.277-.277-.277-.553-.553-.553a3.424,3.424,0,0,1-.553-.83,6.047,6.047,0,0,1-.83-1.383c-1.936-2.766-3.043-4.7-5.256-7.469-1.107-1.66-1.936-1.936-3.043-1.936h-.277l.553-.83v-.83c1.936,0,2.49,0,3.6-.553a4.155,4.155,0,0,0,3.043-4.149c0-2.766-1.936-4.426-5.256-4.426a12.7,12.7,0,0,0-2.766.277V23.6c0,3.32.277,5.256.83,6.639H66.236A23.787,23.787,0,0,0,66.79,23.6V11.986a11.489,11.489,0,0,0-.277-3.6c-.277-.83-.83-1.107-1.936-1.107H64.3L65.13,5.9h9.405c3.32,0,4.426.277,5.809,1.383a4.654,4.654,0,0,1,1.936,4.149,5.462,5.462,0,0,1-1.66,3.873,18.8,18.8,0,0,1-3.873,2.49l.83,1.107,3.873,5.256c1.936,2.49,3.043,4.149,4.426,5.256.553,0,.83.277,1.66.83Z" transform="translate(100.573 -3.964)" fill="#3b4d62"/>
  <path id="Контур_4050" data-name="Контур 4050" d="M78.909,30.42H75.036a9.783,9.783,0,0,1,.277-1.66A24.088,24.088,0,0,0,75.59,23.5V11.886a11.489,11.489,0,0,0-.277-3.6c-.277-.83-.83-1.107-1.936-1.107H73.1L73.93,5.8h5.533c0,1.107-.277,1.936-.277,2.766V24.058c0,3.32.277,5.256.83,6.639Z" transform="translate(116.116 -4.14)" fill="#3b4d62"/>
  <path id="Контур_4051" data-name="Контур 4051" d="M99.984,7.99l-.553,1.383-.277,1.107H98.6a8.779,8.779,0,0,0-6.916-2.766c-6.363,0-10.235,3.873-10.235,10.512S85.876,29.29,92.238,29.29a13.885,13.885,0,0,0,3.32-.553,7.876,7.876,0,0,0,3.873-1.66l.553.277-.277.83-.553,1.107L98.877,30.4a9.734,9.734,0,0,1-3.32.553,18.263,18.263,0,0,1-3.873.277,18.5,18.5,0,0,1-7.192-1.383A12.605,12.605,0,0,1,77.3,18.225,11.8,11.8,0,0,1,82,8.543C84.769,6.33,88.365,5.5,93.068,5.5a13.468,13.468,0,0,1,3.32.277,28.384,28.384,0,0,1,3.873,1.107Z" transform="translate(123.535 -4.67)" fill="#3b4d62"/>
  <path id="Контур_4052" data-name="Контур 4052" d="M90.273,5.8a5.129,5.129,0,0,1,1.936.553,3.334,3.334,0,0,1,1.383,1.383,5.129,5.129,0,0,1,.553,1.936,5.129,5.129,0,0,1-.553,1.936,3.334,3.334,0,0,1-1.383,1.383,3.665,3.665,0,0,1-3.873,0,3.333,3.333,0,0,1-1.383-1.383A5.128,5.128,0,0,1,86.4,9.673a5.128,5.128,0,0,1,.553-1.936,3.333,3.333,0,0,1,1.383-1.383A5.128,5.128,0,0,1,90.273,5.8m0,.553a3.509,3.509,0,0,0-1.66.277,2.16,2.16,0,0,0-1.107,1.107,3.932,3.932,0,0,0-.553,1.66,3.932,3.932,0,0,0,.553,1.66c.277.553.83.83,1.107,1.107a2.766,2.766,0,0,0,3.32,0,2.16,2.16,0,0,0,1.107-1.107,2.113,2.113,0,0,0,.553-1.383,3.932,3.932,0,0,0-.553-1.66c-.277-.553-.83-.83-1.107-1.107a3.932,3.932,0,0,0-1.66-.553m-1.66,5.256V7.736H91.1c.277,0,.277.277.553.277,0,.277.277.277.277.553a.978.978,0,0,1-1.107,1.107c.277,0,.277,0,.277.277.277.277.277.553.553.83l.553.83h-.83l-.553-.553q-.415-.83-.83-.83a.966.966,0,0,0-.553-.277h-.277v1.66ZM89.166,9.4H90a1.016,1.016,0,0,0,.83-.277c.277,0,.277-.277.277-.553V8.29l-.277-.277H89.443V9.4Z" transform="translate(139.609 -4.14)" fill="#3b4d62"/>
  <path id="Контур_4053" data-name="Контур 4053" d="M18.808,5.2A14.108,14.108,0,1,0,32.916,19.308,14.168,14.168,0,0,0,18.808,5.2Zm0,24.067A10.235,10.235,0,1,1,29.044,19.032,10.393,10.393,0,0,1,18.808,29.267Z" transform="translate(-4.7 -5.2)" fill="#3b4d62"/>
  <circle id="Эллипс_24" data-name="Эллипс 24" cx="6.363" cy="6.363" r="6.363" transform="translate(7.746 7.469)" fill="#3b4d62"/>
</svg>
