<svg id="FAG_1_" xmlns="http://www.w3.org/2000/svg" width="86.781" height="29.059" viewBox="0 0 86.781 29.059">
  <path id="Контур_4040" data-name="Контур 4040" d="M52.258,16.668H64.317V22.4H52.258V34.261H40.2V5.4H64.317v5.535H52.258Z" transform="translate(-40.2 -5.202)" fill="#3b4d62"/>
  <path id="Контур_4041" data-name="Контур 4041" d="M64.556,10.835,61.591,22.1h5.93L64.556,10.835ZM61,5.5H75.033l7.709,28.861H70.684l-1.977-7.314h-8.7l-1.977,7.314H52.3L60.009,5.3Z" transform="translate(-28.381 -5.3)" fill="#3b4d62"/>
  <path id="Контур_4042" data-name="Контур 4042" d="M71.274,5.4h25.3a2.194,2.194,0,0,1,2.174,2.174v5.733H88.473V10.935H79.379V28.726h9.093V22.4H83.926V16.668H98.554V32.087a2.194,2.194,0,0,1-2.174,2.174H71.274A2.194,2.194,0,0,1,69.1,32.087V7.377A2.032,2.032,0,0,1,71.274,5.4Z" transform="translate(-11.971 -5.202)" fill="#3b4d62"/>
</svg>
