<svg id="joyson_weiss" xmlns="http://www.w3.org/2000/svg" width="241.824" height="69.955" viewBox="0 0 241.824 69.955">
  <g id="Сгруппировать_569" data-name="Сгруппировать 569" transform="translate(0 0)">
    <path id="Контур_4054" data-name="Контур 4054" d="M38.973,72.639c20.041,0,36.3-15.81,36.3-34.96s-16.255-34.96-36.3-34.96C21.827,1.829,2.009,18.084,15.592,36.12c13.36,15.365,32.065,4.008,30.506-6.9-1.559-12.024-18.7-5.344-18.7-5.344s5.344-10.243,17.591-8.684S65.026,31.222,54.115,45.7C43.2,59.947,24.722,57.943,22.273,57.052c-2-.668-14.7-3.117-19.373-16.923,1.113,18.037,16.923,32.51,36.073,32.51Z" transform="translate(-2.9 -2.684)" fill="#3b4d62" fill-rule="evenodd"/>
    <path id="Контур_4055" data-name="Контур 4055" d="M76.492,15.594V30.735c.223,4.008-1.781,5.79-5.79,5.567-3.785-.223-6.458-1.336-8.462-3.34a16.72,16.72,0,0,0,5.344.891c2.227.223,3.563-.891,3.34-3.563V14.7c0-1.781-.668-2.449-2.449-2.449H64.913A3.309,3.309,0,0,0,61.8,14.035c-.223.668-.668.891-.891,1.336s-.445.668-.445.891h2.227a26.236,26.236,0,0,0,2.449,4.231c.445.891,1.559,1.781,3.563,2.672q-8.684.334-9.352-2.672c0-.223-.223-.445-.668-.891a10.858,10.858,0,0,1-.668-1.559c-.668.223-1.559.223-2.449.445a13.7,13.7,0,0,1-2.895-.223c2-1.559,4.008-4.9,6.458-10.466h6.235a27.711,27.711,0,0,0-2.227,4.453,6.009,6.009,0,0,1,3.34-.891h5.344c2.895-.223,4.676,1.336,4.676,4.231ZM42.2,34.521V33.185h3.563V15.371h-3.34V14.258h3.34V7.8h5.79v6.458h2.672v1.113H51.552V32.74a8.473,8.473,0,0,0,3.785-1.781c-1.113,2.449-5.567,3.785-13.138,3.563Zm17.814-.891H54a66.282,66.282,0,0,0,4.453-6.458c.668-2,3.785-3.117,9.575-3.117a11.948,11.948,0,0,0-4.008,3.117c-.445.668-.891,1.336-1.559,2.449a26.9,26.9,0,0,1-2.449,4.008Zm23.381-3.34V8.245h5.344V9.581a2.468,2.468,0,0,1,2.449-1.336H92.97c2.449,0,3.785,1.113,3.563,3.563V32.74c0,2.227-1.113,3.34-3.563,3.34-1.559,0-3.117-.891-4.676-2.449-.445,1.559-2.449,2.449-6.458,2.449,1.113-1.336,1.559-3.34,1.559-5.79ZM98.537,10.027h4.676a33.22,33.22,0,0,1-.445,4.676h2.672V7.8h5.79v6.9h5.344v1.113h-5.344V23.61h4.9v1.113h-4.9V34.3h5.79v1.113H97.646V34.3h7.794V24.723h-6.9V23.61h6.9V15.816h-2.672a5.534,5.534,0,0,0-.223,1.781c-.223,3.117-2.227,4.231-5.79,3.563a32.35,32.35,0,0,0,1.336-4.231c.223-3.563.445-5.79.445-6.9ZM91.188,30.958V25.391H88.516v6.235a7.874,7.874,0,0,1-.223,1.336,4.347,4.347,0,0,0,1.559.223c1.113.223,1.559-.445,1.336-2.227ZM88.739,10.472v6.235h2.672v-4.9c0-1.336-.445-2.227-1.559-2.227-.668,0-1.113.223-1.113.891Zm0,7.348v6.235h2.672V17.82Zm60.567,12.247h-7.348v.668c-.445,2.449,1.113,3.563,4.231,3.34h4.676q4.342.334,6.012-4.676c0,2.672-.668,4.453-1.559,5.122-.891.891-2.672,1.336-5.79,1.336h-5.79c-6.012.223-8.907-1.336-8.239-4.231V30.29h-2.227c-2.227,0-3.563-.445-3.785-1.781V30.29h-6.235V11.363h6.235v2q.668-2,4.008-2h2.227V7.8h6.235v3.563h6.68c4.008,0,6.012,1.336,5.79,4.008V26.5c.223,2.449-1.559,3.785-5.122,3.563Zm-1.336-3.785V21.16h-6.235v7.571h3.117c2.449.223,3.34-.445,3.117-2.449Zm-3.117-13.806h-3.117v7.348h6.235V14.48c.223-1.336-.891-2-3.117-2ZM132.606,28.731H135.5V21.16h-6.235v5.79a2.866,2.866,0,0,0,3.34,1.781Zm-3.34-14.474v5.567H135.5V12.476h-2.672a3.794,3.794,0,0,0-3.563,1.781Zm41.863-.668h7.794a.479.479,0,0,0,.445.445c.445.445.668.891,1.113,1.113,3.34-2,4.9-3.117,4.9-3.785,0-.891-1.113-1.336-3.563-1.113H165.784V8.913h20.041c4.231,0,6.235,1.113,6.458,2.895,0,1.113-3.117,3.34-8.684,6.68a7.524,7.524,0,0,1,1.336,2.672h11.579v1.113H185.157A36.55,36.55,0,0,1,185.6,27.4c0,5.567-3.117,8.462-9.352,8.239a10.057,10.057,0,0,1-8.239-3.785,23.461,23.461,0,0,0,5.79,1.113c3.785.223,5.567-2,5.122-6.458a24.032,24.032,0,0,0-.668-4.231H162.221V21.16h15.587a31.652,31.652,0,0,0-6.68-7.571Z" transform="translate(45.311 3.591)" fill="#3b4d62" fill-rule="evenodd"/>
    <path id="Контур_4056" data-name="Контур 4056" d="M44.249,26.881h-.891a9.643,9.643,0,0,1-1.113.223l.445-1.336h3.34a9.645,9.645,0,0,0-.223,1.113V34.23a4.353,4.353,0,0,1-.891,3.117,2.873,2.873,0,0,1-2.449,1.113H41.8a4.658,4.658,0,0,0,1.336-.891,5.9,5.9,0,0,0,1.113-3.785v-6.9Zm8.907,9.352a4.006,4.006,0,0,1-3.34-1.559,6.217,6.217,0,0,1-1.336-4.008,4.587,4.587,0,0,1,1.559-3.785A4.431,4.431,0,0,1,53.6,25.323a4.743,4.743,0,0,1,3.563,1.559A6.217,6.217,0,0,1,58.5,30.89a4.587,4.587,0,0,1-1.559,3.785,4.884,4.884,0,0,1-3.785,1.559ZM53.6,35.12a2.741,2.741,0,0,0,2.227-1.113,3.549,3.549,0,0,0,.891-2.672,4.405,4.405,0,0,0-1.113-3.117,3.077,3.077,0,0,0-2.449-1.336,2.741,2.741,0,0,0-2.227,1.113,3.549,3.549,0,0,0-.891,2.672,5.763,5.763,0,0,0,.891,3.117A3.174,3.174,0,0,0,53.6,35.12Zm9.575-3.785h0l-1.336-2.672-1.113-2.227a3.074,3.074,0,0,0-.668-.891h2.227v.668c0,.223.223.445.223.668l1.336,2.895h0L65.4,26.881c0-.223.223-.445.223-.668v-.668h2.227a4.857,4.857,0,0,0-.891,1.113c-.223.445-.668,1.113-1.113,2l-1.336,2.672h0v3.34c0,.445.223.891.223,1.336H62.509a2.824,2.824,0,0,0,.223-1.336v-3.34Zm11.356-3.563a1.193,1.193,0,0,0-.891-.668,1.339,1.339,0,0,0-.891-.223c-.445,0-.668.223-1.113.445a1.688,1.688,0,0,0-.445.891c0,.445,0,.668.223.891A4.857,4.857,0,0,0,72.529,30a6.353,6.353,0,0,1,1.781,1.559,4.2,4.2,0,0,1,.445,1.781,3.044,3.044,0,0,1-3.117,3.117H70.525a3.762,3.762,0,0,1-1.113-.445V33.784c.223.445.668.668.891.891a1.669,1.669,0,0,0,1.113.223,1.522,1.522,0,0,0,1.559-1.559,2.008,2.008,0,0,0-.223-1.113l-1.113-1.113a3.434,3.434,0,0,1-1.559-1.559,3.218,3.218,0,0,1-.445-1.559,2.171,2.171,0,0,1,.891-2,3.956,3.956,0,0,1,2.227-.891h.891c.223,0,.445.223.891.223v2.449Zm7.126,8.462a4.006,4.006,0,0,1-3.34-1.559,6.217,6.217,0,0,1-1.336-4.008,4.587,4.587,0,0,1,1.559-3.785A4.431,4.431,0,0,1,82.1,25.323a4.743,4.743,0,0,1,3.563,1.559A6.217,6.217,0,0,1,87,30.89a4.587,4.587,0,0,1-1.559,3.785,5.215,5.215,0,0,1-3.785,1.559Zm.223-1.113a2.741,2.741,0,0,0,2.227-1.113A3.549,3.549,0,0,0,85,31.335a5.763,5.763,0,0,0-.891-3.117,3.077,3.077,0,0,0-2.449-1.336,2.741,2.741,0,0,0-2.227,1.113,3.549,3.549,0,0,0-.891,2.672,4.353,4.353,0,0,0,.891,3.117,3.077,3.077,0,0,0,2.449,1.336Zm9.13-2V34.9c0,.445.223.891.223,1.336H89.452a2.825,2.825,0,0,0,.223-1.336V27.1c-.223-.223-.445-.668-.668-.668-.445-.445-.668-.668-.668-.891h2.227l.668,1.336a4.659,4.659,0,0,0,.891,1.336l3.785,5.122h0V26.881c0-.445-.223-.891-.223-1.336h1.781a2.824,2.824,0,0,0-.223,1.336V35.12a9.645,9.645,0,0,0,.223,1.113H95.687c0-.223-.223-.445-.445-.891a4.867,4.867,0,0,0-.668-1.113l-3.785-5.122h0v4.008Zm12.47,3.117A2.824,2.824,0,0,0,103.7,34.9V27.1c0-.445-.223-.891-.223-1.336h5.344l-.445.891-.445.891c-.445-.223-.668-.445-1.113-.445s-.891-.223-1.336-.223h-.445v3.34h3.117l-.445.891-.445.891a1.688,1.688,0,0,0-.891-.445c-.445,0-.668-.223-1.336-.223h0V34.9h0a6.865,6.865,0,0,0,2.227-.223l2-.668-.223,1.113-.445,1.113h-5.122Zm7.794,0A2.824,2.824,0,0,0,111.5,34.9V27.1c0-.445-.223-.891-.223-1.336H113.5a2.824,2.824,0,0,0-.223,1.336V35.12h0a4.341,4.341,0,0,0,1.781-.223l2-.668-.445,1.113-.445,1.113h-4.9Zm7.794,0a2.824,2.824,0,0,0,.223-1.336V27.1c0-.445-.223-.891-.223-1.336h5.344l-.445.891-.445.891c-.445-.223-.668-.445-1.113-.445s-.891-.223-1.336-.223h-.445v3.34h3.117l-.445.891-.445.891a1.688,1.688,0,0,0-.891-.445c-.445,0-.668-.223-1.336-.223h0V34.9h0a6.865,6.865,0,0,0,2.227-.223l2-.668-.223,1.113-.445,1.113h-5.122Zm15.142-.668c-.445.223-1.113.445-1.559.668a3.3,3.3,0,0,1-1.559.223A4.431,4.431,0,0,1,127.53,34.9a5.238,5.238,0,0,1-1.336-3.785,5.366,5.366,0,0,1,1.559-4.008,4.587,4.587,0,0,1,3.785-1.559h1.336a1.7,1.7,0,0,1,1.113.445v1.781l-1.336-.668a2.824,2.824,0,0,0-1.336-.223,3.576,3.576,0,0,0-2.449,1.113,4.475,4.475,0,0,0-.891,2.895,4.106,4.106,0,0,0,.891,2.895,2.466,2.466,0,0,0,2.227,1.113,3.3,3.3,0,0,0,1.559-.223,12.77,12.77,0,0,0,1.559-.891v1.781Zm4.676-2.449V26.659h0a2.824,2.824,0,0,0-1.336.223c-.891.223-1.336.223-1.781.668l.223-.891.223-.891h7.126l-.223.891-.223.891a5.666,5.666,0,0,0-1.559-.445c-.445,0-.668-.223-1.113-.223h0V34.9c0,.445.223.891.223,1.559h-2.227a2.824,2.824,0,0,0,.223-1.336,8.263,8.263,0,0,0,.445-2Zm6.68,0V27.1c0-.445-.223-.891-.223-1.336h1.781a3.778,3.778,0,0,1,2.895.891,2.741,2.741,0,0,1,1.113,2.227,3.092,3.092,0,0,1-1.113,2.227c-.223.223-.445.223-.668.445h0l.668,1.113c.445.445.668,1.113,1.113,1.559a21.566,21.566,0,0,1,1.559,2H150.91a18.2,18.2,0,0,1-1.781-2c-.668-.891-1.336-1.781-1.781-2.449l-.223-.445h0v3.34c0,.445.223.891.223,1.336h-2.227a2.824,2.824,0,0,0,.223-1.336c.223-.223.223-.891.223-1.559Zm1.559-2.227h0a2.2,2.2,0,0,0,1.559-3.785c-.445-.445-.891-.445-1.559-.668h0V30.89Zm11.356,5.344a4.006,4.006,0,0,1-3.34-1.559,4.587,4.587,0,0,1-1.559-3.785,4.587,4.587,0,0,1,1.559-3.785,4.431,4.431,0,0,1,3.563-1.559,4.743,4.743,0,0,1,3.563,1.559,6.217,6.217,0,0,1,1.336,4.008,4.587,4.587,0,0,1-1.559,3.785,5.057,5.057,0,0,1-3.563,1.336Zm.223-1.113a2.741,2.741,0,0,0,2.227-1.113,3.549,3.549,0,0,0,.891-2.672,4.353,4.353,0,0,0-.891-3.117,3.077,3.077,0,0,0-2.449-1.336,2.741,2.741,0,0,0-2.227,1.113,3.549,3.549,0,0,0-.891,2.672,4.353,4.353,0,0,0,.891,3.117A3.077,3.077,0,0,0,158.7,35.12Zm9.13-2V34.9c0,.445.223.891.223,1.336h-1.781A2.825,2.825,0,0,0,166.5,34.9V27.1c-.223-.223-.445-.668-.668-.668-.445-.445-.668-.668-.668-.891h2.227l.668,1.336a4.658,4.658,0,0,0,.891,1.336l3.785,5.122h0V26.881c0-.445-.223-.891-.223-1.336h1.781a2.824,2.824,0,0,0-.223,1.336V35.12a9.645,9.645,0,0,0,.223,1.113h-1.559c0-.223-.223-.445-.445-.891a4.868,4.868,0,0,0-.668-1.113l-3.785-5.122h0v4.008Zm9.575,0V27.1c0-.445-.223-.891-.223-1.336h2.227a2.825,2.825,0,0,0-.223,1.336V34.9c0,.445.223.891.223,1.336h-2.449a2.824,2.824,0,0,0,.223-1.336,4.342,4.342,0,0,0,.223-1.781Zm12.024,2.449c-.445.223-1.113.445-1.559.668a3.3,3.3,0,0,1-1.559.223,4.431,4.431,0,0,1-3.563-1.559,5.238,5.238,0,0,1-1.336-3.785,5.366,5.366,0,0,1,1.559-4.008,4.587,4.587,0,0,1,3.785-1.559H188.1a1.7,1.7,0,0,1,1.113.445v1.781l-1.336-.668a2.824,2.824,0,0,0-1.336-.223,3.576,3.576,0,0,0-2.449,1.113,4.475,4.475,0,0,0-.891,2.895,4.106,4.106,0,0,0,.891,2.895,2.466,2.466,0,0,0,2.227,1.113,3.3,3.3,0,0,0,1.559-.223,12.775,12.775,0,0,0,1.559-.891v1.781Z" transform="translate(44.82 24.814)" fill="#3b4d62"/>
  </g>
  <path id="Контур_4057" data-name="Контур 4057" d="M114.021,27.772a1.193,1.193,0,0,0-.891-.668,1.339,1.339,0,0,0-.891-.223c-.445,0-.668.223-1.113.445a1.688,1.688,0,0,0-.445.891c0,.445,0,.668.223.891a4.859,4.859,0,0,0,1.113.891,6.353,6.353,0,0,1,1.781,1.559,4.2,4.2,0,0,1,.445,1.781,3.044,3.044,0,0,1-3.117,3.117h-1.113a3.762,3.762,0,0,1-1.113-.445V33.784c.223.445.668.668.891.891a1.669,1.669,0,0,0,1.113.223,1.522,1.522,0,0,0,1.559-1.559,2.008,2.008,0,0,0-.223-1.113l-1.113-1.113a3.433,3.433,0,0,1-1.559-1.559,3.218,3.218,0,0,1-.445-1.559,2.171,2.171,0,0,1,.891-2,3.956,3.956,0,0,1,2.227-.891h.891c.223,0,.445.223.891.223v2.449Z" transform="translate(127.135 24.814)" fill="#3b4d62"/>
</svg>
