<svg id="layer1" xmlns="http://www.w3.org/2000/svg" width="220.971" height="24.724" viewBox="0 0 220.971 24.724">
  <path id="path2622" d="M307.285,540A6.857,6.857,0,0,0,300,546.4c0,6.181,5.3,6.843,6.4,7.064,3.973,1.1,6.4,1.1,6.4,4.415a3.487,3.487,0,0,1-3.532,3.532,5.762,5.762,0,0,1-5.74-5.3H300v7.947h3.311v-1.545a9.687,9.687,0,0,0,5.96,1.987c4.415,0,7.505-2.87,7.505-7.285,0-5.077-3.091-6.181-6.181-7.285-3.09-.883-6.4-1.325-6.4-3.753,0-1.987,1.325-3.09,3.311-3.09a3.7,3.7,0,0,1,3.09,1.324,4.628,4.628,0,0,1,1.545,3.091h3.311v-7.064h-3.532v1.545A6.013,6.013,0,0,0,307.285,540Zm23.4,0c-5.74,0-11.92,3.753-11.92,12.141,0,7.064,5.3,12.583,11.92,12.583a10.389,10.389,0,0,0,10.6-8.388h-3.753c-1.324,2.649-3.09,4.415-6.622,4.415-5.077,0-7.726-3.973-7.726-8.388,0-4.636,2.87-8.388,7.726-8.388a7.444,7.444,0,0,1,3.753,1.1,5.71,5.71,0,0,1,2.428,3.091H340.4v-7.726h-3.311v1.545C334.878,540.221,331.346,540,330.684,540Zm13.024.442v3.311h2.649v17.218h-2.649v3.09h9.272v-3.09h-2.649v-7.726h8.389v7.506h-2.428v3.091h9.271V560.75h-2.649V543.532h2.649v-3.311h-9.271v3.311h2.428v5.96h-8.389v-5.96h2.649v-3.311l-9.272.221Zm29.8,0v3.311h2.649l-5.96,17.218h-1.766v3.09h8.389v-3.09h-2.649l1.545-4.636h7.064l1.545,4.636h-2.649v3.09h8.609v-3.09h-1.766l-5.739-17.218h2.649v-3.311Zm20.751,0v3.311h2.649v17.218H394.26v3.09h18.1V557h-3.753v3.973h-7.726v-7.726h6.623v-3.753h-6.623v-5.96h7.726v3.091h3.753v-6.181Zm22.516,0v3.311h2.649v17.218h-2.649v3.09h9.492v-3.09H423.62v-7.726h7.064v-3.753H423.62v-5.96h7.947v3.091h3.753v-6.181Zm21.192,0v3.311h2.649v17.218h-2.649v3.09h9.492v-3.09h-2.649v-7.726h7.064v-3.753h-7.064v-5.96h7.947v3.091h3.753v-6.181Zm22.075,0v3.311h2.649v17.218h-2.649v3.09h16.335V557h-3.753v3.753h-5.519V543.532h2.87v-3.311l-9.934.221Zm18.764,0v3.311h2.428v17.218h-2.428v3.09h18.1V557h-3.753v3.973H485.43v-7.726h6.622v-3.753H485.43v-5.96h7.726v3.091h3.753v-6.181Zm21.854,0v3.311h2.649v17.218h-2.649v3.09h9.492v-3.09h-2.649v-7.726h2.649c1.766,0,4.194.221,4.194,2.428v8.168h6.623V560.75h-2.428v-5.3c0-1.545-.221-3.091-2.87-3.753h0c2.428-1.1,3.753-2.649,3.753-5.3a6.037,6.037,0,0,0-.883-3.311c-2.207-2.87-5.739-2.649-7.285-2.649h-10.6Zm6.843,3.311h2.208c2.208,0,5.3,0,5.3,2.87,0,3.091-2.428,3.532-4.636,3.532h-2.87v-6.4ZM379.47,545.077h0l2.649,7.947h-5.3Z" transform="translate(-300 -540)" fill="#3b4d62"/>
</svg>
