<svg xmlns="http://www.w3.org/2000/svg" width="229.464" height="35.98" viewBox="0 0 229.464 35.98">
  <g id="LOGO" transform="translate(0 0.5)">
    <g id="VF_logo_landscape_grey_RGB" transform="translate(0 0)">
      <g id="Сгруппировать_568" data-name="Сгруппировать 568">
        <g id="Group-33" transform="translate(193.984)">
          <path id="Fill-1" d="M-477.21,4.2A17.39,17.39,0,0,0-494.7,21.69h34.981A17.39,17.39,0,0,0-477.21,4.2" transform="translate(494.7 -4.2)" fill="none" stroke="#000" stroke-miterlimit="10" stroke-width="1"/>
          <path id="Fill-3" d="M-477.21,30.49A17.39,17.39,0,0,1-494.7,13h34.981a17.39,17.39,0,0,1-17.49,17.49" transform="translate(494.7 4.49)" fill="#3b4d62" stroke="#000" stroke-miterlimit="10" stroke-width="1" fill-rule="evenodd"/>
        </g>
        <path id="Fill-5" d="M41.7,8.2H25.6v4.373h5.764v15.7h5.168v-15.7H41.7Z" transform="translate(11.964 -0.25)" fill="#3b4d62" fill-rule="evenodd"/>
        <path id="Fill-7" d="M34.7,8.2v4.373h5.168v15.7h5.168v-15.7H51V8.2Z" transform="translate(20.951 -0.25)" fill="#3b4d62" fill-rule="evenodd"/>
        <path id="Fill-9" d="M72.282,28.274V8.2H67.313V20.324L58.369,8.2H53.4V28.274h4.969V16.548l8.944,11.726Z" transform="translate(39.418 -0.25)" fill="#3b4d62" fill-rule="evenodd"/>
        <path id="Fill-11" d="M44.1,28.274H59.007V23.9h-9.54V20.125h7.95V15.753h-7.95v-3.18h9.54V8.2H44.1Z" transform="translate(30.234 -0.25)" fill="#3b4d62" fill-rule="evenodd"/>
        <path id="Fill-13" d="M64.9,28.274h5.366V20.125h8.348V15.951H70.266V12.573H80.2V8.2H64.9Z" transform="translate(50.775 -0.25)" fill="#3b4d62" fill-rule="evenodd"/>
        <path id="Fill-15" d="M23.2,8.2,17.631,22.312h-.2L11.868,8.2H6.7l8.348,20.074h4.969L28.364,8.2Z" transform="translate(-6.7 -0.25)" fill="#3b4d62" fill-rule="evenodd"/>
        <path id="Fill-17" d="M92,28.274h14.31V23.9H97.168V8.2H92Z" transform="translate(77.537 -0.25)" fill="#3b4d62" fill-rule="evenodd"/>
        <path id="Fill-19" d="M83.5,28.274H98.009V23.9H88.866V8.2H83.5Z" transform="translate(69.143 -0.25)" fill="#3b4d62" fill-rule="evenodd"/>
        <path id="Fill-21" d="M79.75,20.721l2.783-6.758h0l2.783,6.758ZM88.3,28.274h4.969L85.116,8.2H80.148L71.8,28.274h4.969L78.16,24.7h8.745Z" transform="translate(57.589 -0.25)" fill="#3b4d62" fill-rule="evenodd"/>
        <path id="Fill-23" d="M23.95,20.721l2.783-6.758h0l2.783,6.758ZM32.5,28.274h4.969L29.316,8.2H24.348L16,28.274h4.969L22.36,24.7h8.745Z" transform="translate(2.484 -0.25)" fill="#3b4d62" fill-rule="evenodd"/>
      </g>
    </g>
  </g>
</svg>
