<svg id="mmpro_weiss" xmlns="http://www.w3.org/2000/svg" width="149.923" height="21.107" viewBox="0 0 149.923 21.107">
  <g id="Сгруппировать_570" data-name="Сгруппировать 570" transform="translate(0 0)">
    <path id="Контур_4058" data-name="Контур 4058" d="M84.249,8.586A8.159,8.159,0,0,0,80.106,7.8H73.4a4.846,4.846,0,0,0-3.551.592,2.842,2.842,0,0,0-1.381,1.184V7.6H66.1V28.51h2.367V22.592a2.842,2.842,0,0,0,1.381,1.184,7.878,7.878,0,0,0,3.551.789h6.51a7.823,7.823,0,0,0,3.945-.789,6.8,6.8,0,0,0,2.367-2.367,6.756,6.756,0,0,0,.789-3.551V14.307a6.484,6.484,0,0,0-.789-3.354A3.055,3.055,0,0,0,84.249,8.586Zm.395,9.272a4.221,4.221,0,0,1-1.381,3.551,6.475,6.475,0,0,1-4.143.986H73.6a5.89,5.89,0,0,1-3.945-1.184,4.759,4.759,0,0,1-1.381-3.354V14.307a4.327,4.327,0,0,1,1.381-3.354A5.551,5.551,0,0,1,73.6,9.77H79.12c3.748,0,5.523,1.578,5.523,4.537v3.551Z" transform="translate(12.807 -7.403)" fill="#3b4d62"/>
    <path id="Контур_4059" data-name="Контур 4059" d="M85.5,7.6c-1.578,0-2.762.2-3.354.789A6.294,6.294,0,0,0,80.967,9.77V7.6H78.6V24.368h2.367V13.518a3.806,3.806,0,0,1,.592-1.973,3.509,3.509,0,0,1,1.578-1.381A5.253,5.253,0,0,1,85.5,9.573h3.354a10.941,10.941,0,0,1,1.184-1.578c0-.2.2-.2.2-.395H85.5Z" transform="translate(24.965 -7.403)" fill="#3b4d62"/>
    <path id="Контур_4060" data-name="Контур 4060" d="M104.246,8.389a9.494,9.494,0,0,0-4.34-.789H93.2c-2.564,0-4.34.592-5.523,1.775A6.4,6.4,0,0,0,85.9,14.11v3.551c0,4.537,2.564,6.707,7.3,6.707h6.707a6.475,6.475,0,0,0,4.143-.986,4.6,4.6,0,0,0,2.367-2.367,9.293,9.293,0,0,0,.789-3.354V13.913a6.484,6.484,0,0,0-.789-3.354A5.705,5.705,0,0,0,104.246,8.389Zm.592,9.469c0,3.156-1.775,4.537-5.129,4.537H93.4c-3.354,0-5.129-1.578-5.129-4.537V14.11a4.935,4.935,0,0,1,.592-2.564,3.509,3.509,0,0,1,1.578-1.381A5.85,5.85,0,0,1,93.2,9.77h6.313a5.34,5.34,0,0,1,3.748,1.184,4.759,4.759,0,0,1,1.381,3.354v3.551Z" transform="translate(32.066 -7.403)" fill="#3b4d62"/>
    <path id="Контур_4061" data-name="Контур 4061" d="M58.846,8.881a16.426,16.426,0,0,0-7.3-1.381,13.36,13.36,0,0,0-5.129.789c-1.578.592-2.367,1.381-2.564,2.564v.395l-.2-.395c-.2-1.184-.986-1.973-2.564-2.564A21.6,21.6,0,0,0,35.766,7.5c-3.354,0-5.721.395-7.3,1.381A4.239,4.239,0,0,0,26.1,13.023V24.465h5.918V15.982a3.116,3.116,0,0,1,3.156-3.156h2.564A3.116,3.116,0,0,1,40.9,15.982v8.482h5.129V15.982a3.116,3.116,0,0,1,3.156-3.156h2.564A2.956,2.956,0,0,1,54.7,15.982v8.482h6.313V13.023A3.83,3.83,0,0,0,58.846,8.881Z" transform="translate(-26.1 -7.5)" fill="#3b4d62"/>
    <path id="Контур_4062" data-name="Контур 4062" d="M78.849,8.881A16.425,16.425,0,0,0,71.55,7.5a13.36,13.36,0,0,0-5.129.789c-1.578.592-2.367,1.381-2.564,2.564l-.2.395v-.395c-.2-1.184-1.184-1.973-2.564-2.564A14.014,14.014,0,0,0,55.966,7.5c-3.354,0-5.721.395-7.3,1.381A4.239,4.239,0,0,0,46.3,13.023V24.465h5.918V15.982a3.078,3.078,0,0,1,2.959-3.156h2.564A3.116,3.116,0,0,1,60.9,15.982v8.482h5.129V15.982a3.116,3.116,0,0,1,3.156-3.156h2.762A2.956,2.956,0,0,1,74.9,15.982v8.482h6.313V13.023A4.239,4.239,0,0,0,78.849,8.881Z" transform="translate(-6.452 -7.5)" fill="#3b4d62"/>
    <path id="Контур_4063" data-name="Контур 4063" d="M103.732,12.8h-3.354A1.7,1.7,0,0,0,98.8,14.378v3.354a1.556,1.556,0,0,0,1.578,1.578h3.354a1.7,1.7,0,0,0,1.578-1.578V14.378C105.113,13.589,104.521,12.8,103.732,12.8Z" transform="translate(44.613 -2.345)" fill="#3b4d62"/>
  </g>
</svg>
