<svg id="preh_weiss" xmlns="http://www.w3.org/2000/svg" width="175.346" height="63.954" viewBox="0 0 175.346 63.954">
  <g id="Сгруппировать_571" data-name="Сгруппировать 571" transform="translate(0 14.523)">
    <path id="Контур_4064" data-name="Контур 4064" d="M43.546,48.362c-4.586,0-7.644-3.312-6.37-8.918s2.548-11.975,3.567-17.326c1.274-5.605,5.1-8.918,11.466-8.918H70.3c6.115,0,8.918,2.548,7.644,9.173C77.179,26.195,76.67,29,76.16,31.29c-.51,2.548-2.038,4.586-6.879,4.586H48.133a21.344,21.344,0,0,0-.51,2.548c-.51,3.058,1.784,3.312,3.567,3.312H73.867l-1.274,6.625Zm6.625-20.384H67.752s.51-3.058.764-4.332c.255-1.019-.764-2.038-2.293-2.038H54.757c-2.038,0-3.567.51-4.077,3.312Z" transform="translate(53.531 -12.945)" fill="#3b4d62" fill-rule="evenodd"/>
    <path id="Контур_4065" data-name="Контур 4065" d="M31.247,48.362H20.8s5.351-24.97,5.606-26.244c1.274-5.605,5.1-8.918,11.466-8.918H53.414c6.115,0,8.918,2.548,7.644,9.173l-.764,3.822H50.866a7.86,7.86,0,0,0,.255-2.293c.255-1.019-.764-2.038-2.293-2.038H39.91c-2.038,0-3.567.51-4.077,3.312Z" transform="translate(28.63 -12.945)" fill="#3b4d62"/>
    <path id="Контур_4066" data-name="Контур 4066" d="M22.8,21.763A2.985,2.985,0,0,0,20,24.056L16.943,38.58a1.787,1.787,0,0,0,1.784,2.293h15.8a2.985,2.985,0,0,0,2.8-2.293l1.019-4.332h9.427l-2.038,9.427c-.51,2.548-2.038,4.586-6.879,4.586H19.745L15.159,45.2,11.592,62.53H1.4l8.663-40.512c1.274-5.605,5.1-8.918,11.466-8.918h8.153L27.9,21.763H22.8Z" transform="translate(-1.4 -13.1)" fill="#3b4d62" fill-rule="evenodd"/>
    <path id="Контур_4067" data-name="Контур 4067" d="M16.94,13.2h6.115c6.115,0,8.918,2.548,7.644,9.173l-1.274,5.605H16.43c-2.038,0-2.548-1.019-2.293-2.293C14.9,22.373,16.94,13.2,16.94,13.2Z" transform="translate(18.222 -12.945)" fill="#3b4d62"/>
  </g>
  <path id="Контур_4068" data-name="Контур 4068" d="M63.9,7.4H74.348L70.526,25.236l5.606-3.312H88.617c6.115,0,8.918,2.548,7.644,9.173L90.655,57.34H81.227s5.1-23.951,5.1-24.46c.255-1.019-.764-2.038-2.293-2.038H72.564c-2.038,0-3.567.51-4.077,3.312L63.647,57.34H53.2Z" transform="translate(78.784 -7.4)" fill="#3b4d62"/>
</svg>
