<svg id="quin_weiss" xmlns="http://www.w3.org/2000/svg" width="175.875" height="32.803" viewBox="0 0 175.875 32.803">
  <path id="Контур_4069" data-name="Контур 4069" d="M76.828,16.1A200.21,200.21,0,0,0,52.1,17.614V38.053h6.813v-16.4c5.8-.5,11.607-.757,17.663-.757s11.86.252,17.916.757v16.4H101.3V17.614A196.14,196.14,0,0,0,76.828,16.1Z" transform="translate(74.57 -16.1)" fill="#3b4d62"/>
  <path id="Контур_4070" data-name="Контур 4070" d="M66.792,16.7V33.1c-6.056.5-11.86.757-17.916.757h0c-5.8,0-11.86-.252-17.663-.757V16.7H24.4V37.139a203.276,203.276,0,0,0,24.728,1.514h0A196.142,196.142,0,0,0,73.6,37.139V16.7Z" transform="translate(32.375 -15.186)" fill="#3b4d62"/>
  <rect id="Прямоугольник_3462" data-name="Прямоугольник 3462" width="6.813" height="20.439" transform="translate(112.792 1.514)" fill="#3b4d62"/>
  <path id="Контур_4071" data-name="Контур 4071" d="M1.9,17.614V38.053q10.6,1.135,21.2,1.514V48.9h6.813V39.567q10.6-.378,21.2-1.514V17.614a200.646,200.646,0,0,0-49.2,0ZM44.292,27.96v6.308a137.3,137.3,0,0,1-14.383.757V28.969H23.1v6.056a137.3,137.3,0,0,1-14.383-.757V21.651c5.8-.5,11.86-.757,17.663-.757,6.056,0,11.86.252,17.663.757A50.675,50.675,0,0,1,44.292,27.96Z" transform="translate(-1.9 -16.1)" fill="#3b4d62"/>
</svg>
