<svg id="tunap_weiss" xmlns="http://www.w3.org/2000/svg" width="219.066" height="50.002" viewBox="0 0 219.066 50.002">
  <path id="Контур_4072" data-name="Контур 4072" d="M58.33,37.926c0,7.021-8.145,12.919-18.256,12.638-9.83.281-17.694-5.617-17.975-12.638V3.1h8.145V37.083c-.281,4.494,4.213,8.145,9.83,8.145,5.9-.281,10.392-3.651,10.392-8.145V3.1H58.33Z" transform="translate(19.747 -0.572)" fill="#3b4d62"/>
  <g id="Сгруппировать_572" data-name="Сгруппировать 572" transform="translate(0 2.528)">
    <path id="Контур_4073" data-name="Контур 4073" d="M7.2,3.1v7.583H22.366V50.564h7.583V10.683H45.677V3.1Z" transform="translate(-7.2 -3.1)" fill="#3b4d62"/>
  </g>
  <path id="Контур_4074" data-name="Контур 4074" d="M37.8,3.1V50.564h8.145V17.7l21.626,32.86h7.583V3.1H67.571V36.241L45.945,3.1Z" transform="translate(48.141 -0.572)" fill="#3b4d62"/>
  <path id="Контур_4075" data-name="Контур 4075" d="M76.345,10.683V26.411h9.83c4.494,0,7.864-3.651,8.145-8.145a8.255,8.255,0,0,0-8.145-7.583Zm0,23.592v16.29H68.2V3.1H87.017c8.706,0,15.728,7.021,15.728,15.166A15.526,15.526,0,0,1,87.017,33.994H76.345Z" transform="translate(103.121 -0.572)" fill="#3b4d62"/>
  <path id="Контур_4076" data-name="Контур 4076" d="M65.943,33.151H78.3L72.4,15.177ZM51.9,50.564,68.19,3.1h8.145l16.29,47.464H84.479l-3.37-9.83H63.415l-3.37,9.83Z" transform="translate(73.642 -0.572)" fill="#3b4d62"/>
  <path id="Контур_4077" data-name="Контур 4077" d="M85.855,7.817h1.123c.843,0,1.4,0,1.4-1.123,0-.843-.843-.843-1.4-.843H85.855Zm-1.4-3.089h2.528c1.685,0,2.528.562,2.528,1.966,0,1.123-.562,1.685-1.966,1.966l2.247,3.37h-1.4L86.7,8.94h-.843V12.03h-1.4Zm7.021,3.651A4.8,4.8,0,0,0,86.7,3.323a4.982,4.982,0,0,0-4.775,5.055,4.782,4.782,0,1,0,9.549,0m-10.672,0a6.179,6.179,0,1,1,12.358,0,6.179,6.179,0,1,1-12.358,0" transform="translate(125.908 -2.2)" fill="#3b4d62"/>
  <path id="Контур_4078" data-name="Контур 4078" d="M85.855,7.817h1.123c.843,0,1.4,0,1.4-1.123,0-.843-.843-.843-1.4-.843H85.855Zm-1.4-3.089h2.528c1.685,0,2.528.562,2.528,1.966,0,1.123-.562,1.685-1.966,1.966l2.247,3.37h-1.4L86.7,8.94h-.843V12.03h-1.4Zm7.021,3.651A4.8,4.8,0,0,0,86.7,3.323a4.982,4.982,0,0,0-4.775,5.055,4.782,4.782,0,1,0,9.549,0Zm-10.672,0a6.179,6.179,0,1,1,12.358,0,6.179,6.179,0,1,1-12.358,0Z" transform="translate(125.908 -2.2)" fill="#3b4d62"/>
</svg>
