<svg id="wintershall_weiss" xmlns="http://www.w3.org/2000/svg" width="127.904" height="87.388" viewBox="0 0 127.904 87.388">
  <path id="Контур_4024" data-name="Контур 4024" d="M100.741,10.75c-6.091,0-12.181,3.178-18.007,9.268a5.777,5.777,0,0,0-1.059,1.324,21.724,21.724,0,0,0-13.77-5.3,20.521,20.521,0,0,0-13.241,3.972c-2.118-2.383-4.5-4.767-6.62-7.15C42.483,6.513,36.922,3.6,30.3,3.6A18.2,18.2,0,0,0,16.8,9.426c-3.443,3.707-5.3,9-5.3,14.829,0,16.153,11.122,34.425,20.92,39.722a20.878,20.878,0,0,0,9,2.383c4.767,0,8.474-2.648,12.976-6.091,4.767-3.707,8.739-6.091,12.711-6.091,4.5,0,7.15,1.589,9.533,2.913.265.265.53.265,1.059.53,2.913,1.589,7.15,3.707,9,3.972,6.62,1.324,12.976-2.648,18.537-11.122,5.826-9,8.209-16.683,8.209-27.011.265-7.15-5.561-12.711-12.711-12.711M81.94,23.726a17.131,17.131,0,0,0,2.383,2.118,38.5,38.5,0,0,0,6.091,5.031H87.236a74.341,74.341,0,0,1-11.387-.794l4.767-4.767a7.021,7.021,0,0,1,1.324-1.589M67.9,17.635a23.08,23.08,0,0,1,12.711,5.031,7.021,7.021,0,0,0-1.324,1.589,55.051,55.051,0,0,1-5.561,5.561,39.656,39.656,0,0,1-16.418-7.944l-.794-.794A19.254,19.254,0,0,1,67.9,17.635M55.723,23.2a37.979,37.979,0,0,0,15.889,8.209A48.891,48.891,0,0,1,41.953,42a47.244,47.244,0,0,1-24.627-6.091h2.913c14.565,0,25.687-6.885,34.69-13.77a3.655,3.655,0,0,0,.794,1.059M30.3,5.189c6.091,0,11.122,2.648,16.418,8.739,2.118,2.383,4.5,4.767,6.885,7.15C44.866,27.7,34.274,34.318,20.239,34.318a35.545,35.545,0,0,1-5.561-.265,38.987,38.987,0,0,1-1.059-9.533C13.354,13.133,20.239,5.189,30.3,5.189m73.617,44.488C100.212,55.238,94.386,61.594,87.236,60c-1.589-.265-5.561-2.118-8.474-3.707-.265-.265-.53-.265-1.059-.53A18.617,18.617,0,0,0,67.11,52.59c-4.767,0-8.739,2.383-14.035,6.62-4.237,3.443-7.68,5.826-11.916,5.826a16.369,16.369,0,0,1-7.944-2.383c-6.355-3.443-14.3-13.77-18.007-25.687a50.533,50.533,0,0,0,26.746,7.15A53.131,53.131,0,0,0,74,32.2a52.673,52.673,0,0,0,13.241,1.059c1.854,0,3.972-.265,5.826-.265a35.421,35.421,0,0,0,14.3,3.178,11.875,11.875,0,0,0,2.913-.265,46.368,46.368,0,0,1-6.355,13.77M110.8,33.788a16.288,16.288,0,0,1-3.443.265A37.347,37.347,0,0,1,96.5,32.2,48.726,48.726,0,0,0,111.6,26.9a28.864,28.864,0,0,1-.794,6.885M93.327,30.876a31.523,31.523,0,0,1-7.944-6.091A17.133,17.133,0,0,0,83,22.666c.265-.53.794-.794,1.059-1.059,5.561-6.091,11.122-9,16.683-9,6.355,0,10.857,4.767,10.857,11.122v1.059a46.63,46.63,0,0,1-18.272,6.091" transform="translate(-0.378 -3.6)" fill="#3b4d62"/>
  <path id="Контур_4025" data-name="Контур 4025" d="M19.746,33.1h0c-.53,0-.794.265-1.059.794l-1.854,5.561-1.854-5.3c-.265-.794-.53-.794-1.059-.794h0c-.53,0-.794.265-1.059.794l-1.854,5.3L9.154,33.894c0-.53-.53-.794-1.059-.794h0a.7.7,0,0,0-.794.794v.53l2.383,6.885c.265.53.53.794,1.059.794h0c.53,0,.794-.265,1.059-1.059l1.854-5.031,1.854,5.031c.265.53.53,1.059,1.059,1.059h0c.53,0,.794-.265,1.059-.794l2.648-6.885v-.53c.265-.53,0-.794-.53-.794" transform="translate(-7.3 45.019)" fill="#3b4d62"/>
  <path id="Контур_4026" data-name="Контур 4026" d="M14.059,33.1A.97.97,0,0,0,13,34.159v7.15a.97.97,0,0,0,1.059,1.059.97.97,0,0,0,1.059-1.059v-7.15c0-.794-.265-1.059-1.059-1.059" transform="translate(2.094 45.019)" fill="#3b4d62"/>
  <path id="Контур_4027" data-name="Контур 4027" d="M14.059,31.8A.97.97,0,0,0,13,32.859a1.139,1.139,0,0,0,1.059,1.059.97.97,0,0,0,1.059-1.059c.265-.53-.265-1.059-1.059-1.059" transform="translate(2.094 42.877)" fill="#3b4d62"/>
  <path id="Контур_4028" data-name="Контур 4028" d="M19.267,33.265a4.045,4.045,0,0,0-2.648,1.059v-.265A.97.97,0,0,0,15.559,33h0A.97.97,0,0,0,14.5,34.059v7.15a.97.97,0,0,0,1.059,1.059h0a.97.97,0,0,0,1.059-1.059V37.237c0-1.589.794-2.648,2.383-2.648,1.324,0,2.118.794,2.118,2.383v3.972A.97.97,0,0,0,22.18,42h0a.97.97,0,0,0,1.059-1.059V36.707a3.64,3.64,0,0,0-3.972-3.443" transform="translate(4.566 44.854)" fill="#3b4d62"/>
  <path id="Контур_4029" data-name="Контур 4029" d="M23.861,42.228h-.794c-1.059,0-1.324-.53-1.324-1.854V36.667h2.383a.794.794,0,0,0,0-1.589H21.743V32.959a1.059,1.059,0,0,0-2.118,0v2.118h-.53a.794.794,0,0,0,0,1.589h.53v3.972c0,2.118,1.059,3.443,3.178,3.443,1.324,0,2.118-.265,2.118-1.059a1.419,1.419,0,0,0-1.059-.794" transform="translate(10.829 43.041)" fill="#3b4d62"/>
  <path id="Контур_4030" data-name="Контур 4030" d="M25.6,33.1a4.31,4.31,0,0,0-4.5,4.5c0,2.648,1.854,4.5,4.767,4.5,2.118,0,3.707-.794,3.707-1.589a.7.7,0,0,0-.794-.794.973.973,0,0,0-.794.265,4.1,4.1,0,0,1-2.118.53,2.671,2.671,0,0,1-2.913-2.383H28.78c.53,0,1.059,0,1.059-1.059C30.1,34.689,28.25,33.1,25.6,33.1m0,1.589a2.588,2.588,0,0,1,2.648,2.383H23.218q.4-2.383,2.383-2.383" transform="translate(15.444 45.019)" fill="#3b4d62"/>
  <path id="Контур_4031" data-name="Контур 4031" d="M30.031,33.1a4.252,4.252,0,0,0-2.913,1.324v-.265A.97.97,0,0,0,26.059,33.1h0A.97.97,0,0,0,25,34.159v7.15a.97.97,0,0,0,1.059,1.059h0a.97.97,0,0,0,1.059-1.059V37.6a2.5,2.5,0,0,1,2.648-2.648.97.97,0,0,0,1.059-1.059.846.846,0,0,0-.794-.794" transform="translate(21.872 45.019)" fill="#3b4d62"/>
  <path id="Контур_4032" data-name="Контур 4032" d="M32,37.072l-.53-.265c-1.059-.265-1.589-.53-1.589-1.059,0-.794.53-1.059,1.589-1.059a9.364,9.364,0,0,1,1.589.265.925.925,0,0,1,.53.265.7.7,0,0,0,.794-.794c0-.794-1.324-1.324-3.178-1.324-2.118,0-3.443,1.059-3.443,2.648,0,1.324.794,2.118,2.383,2.648l.794.265c1.059.265,1.589.53,1.589,1.059,0,.794-.794,1.059-1.589,1.059a3.827,3.827,0,0,1-1.854-.53.973.973,0,0,0-.794-.265h0c-.265,0-.265,0-.53.265s-.265.265-.265.53c0,.794,1.589,1.589,3.443,1.589,2.118,0,3.443-1.059,3.443-2.913C34.65,37.6,33.061,37.072,32,37.072" transform="translate(25.992 45.019)" fill="#3b4d62"/>
  <path id="Контур_4033" data-name="Контур 4033" d="M35.731,35.737A5.553,5.553,0,0,0,32.818,36.8V32.559a1.059,1.059,0,0,0-2.118,0V43.681a.97.97,0,0,0,1.059,1.059c.53,0,.794-.265.794-1.059V39.444a2.318,2.318,0,0,1,2.383-2.118,1.949,1.949,0,0,1,2.118,2.118v4.237a.97.97,0,0,0,1.059,1.059h0a.97.97,0,0,0,1.059-1.059v-4.5c.265-2.118-1.324-3.443-3.443-3.443" transform="translate(31.266 42.382)" fill="#3b4d62"/>
  <path id="Контур_4034" data-name="Контур 4034" d="M42.809,33.1a.97.97,0,0,0-1.059,1.059v.265A4.133,4.133,0,0,0,34.6,37.6a4.251,4.251,0,0,0,4.237,4.5A3.417,3.417,0,0,0,41.75,40.78v.265a1.059,1.059,0,1,0,2.118,0v-7.15c0-.53-.265-.794-1.059-.794m-3.443,7.415A2.722,2.722,0,0,1,36.718,37.6a2.66,2.66,0,1,1,5.3,0,2.724,2.724,0,0,1-2.648,2.913" transform="translate(37.693 45.019)" fill="#3b4d62"/>
  <path id="Контур_4035" data-name="Контур 4035" d="M41.978,43.152c-.794,0-1.059-.53-1.059-1.324V32.559a1.059,1.059,0,0,0-2.118,0v9.268a2.649,2.649,0,0,0,2.913,2.913c.794,0,1.059-.265,1.059-.794a.7.7,0,0,0-.794-.794" transform="translate(44.615 42.382)" fill="#3b4d62"/>
  <path id="Контур_4036" data-name="Контур 4036" d="M43.978,43.152c-.794,0-1.059-.53-1.059-1.324V32.559a1.059,1.059,0,0,0-2.118,0v9.268a2.649,2.649,0,0,0,2.913,2.913c.794,0,1.059-.265,1.059-.794a.7.7,0,0,0-.794-.794" transform="translate(47.912 42.382)" fill="#3b4d62"/>
  <path id="Контур_4037" data-name="Контур 4037" d="M52.209,31.6a.97.97,0,0,0-1.059,1.059V36.9A4.133,4.133,0,0,0,44,40.074a4.251,4.251,0,0,0,4.237,4.5,3.417,3.417,0,0,0,2.913-1.324v.265a1.059,1.059,0,1,0,2.118,0V32.394c0-.53-.53-.794-1.059-.794M48.5,42.987a2.926,2.926,0,1,1,2.648-2.913A2.463,2.463,0,0,1,48.5,42.987" transform="translate(53.186 42.547)" fill="#3b4d62"/>
  <path id="Контур_4038" data-name="Контур 4038" d="M52.7,33.1a4.31,4.31,0,0,0-4.5,4.5c0,2.648,1.854,4.5,4.767,4.5,2.118,0,3.707-.794,3.707-1.589a.7.7,0,0,0-.794-.794.973.973,0,0,0-.794.265,4.1,4.1,0,0,1-2.118.53,2.671,2.671,0,0,1-2.913-2.383H55.88c.53,0,1.059,0,1.059-1.059,0-2.383-1.589-3.972-4.237-3.972m0,1.589a2.588,2.588,0,0,1,2.648,2.383H50.318A2.223,2.223,0,0,1,52.7,34.689" transform="translate(60.108 45.019)" fill="#3b4d62"/>
  <path id="Контур_4039" data-name="Контур 4039" d="M60.309,33.1a.97.97,0,0,0-1.059,1.059v.265A4.133,4.133,0,0,0,52.1,37.6a4.251,4.251,0,0,0,4.237,4.5A3.417,3.417,0,0,0,59.25,40.78v.265a1.059,1.059,0,1,0,2.118,0v-7.15c-.265-.53-.53-.794-1.059-.794M56.6,40.515A2.722,2.722,0,0,1,53.954,37.6a2.66,2.66,0,1,1,5.3,0c0,1.854-1.059,2.913-2.648,2.913" transform="translate(66.535 45.019)" fill="#3b4d62"/>
</svg>
