<svg id="Слой_2" data-name="Слой 2" xmlns="http://www.w3.org/2000/svg" width="165.517" height="66.241" viewBox="0 0 165.517 66.241">
  <g id="Слой_1" data-name="Слой 1" transform="translate(0)">
    <path id="Контур_4079" data-name="Контур 4079" d="M609.385,38.261H601.52V0h7.872V15.26c.807-.875,1.4-1.642,2.111-2.271a9.9,9.9,0,0,1,10.156-1.135c2.346,1.231,3.382,3.392,3.882,5.833a20.685,20.685,0,0,1,.382,3.955c.042,5.081.016,10.161.016,15.246v1.344h-7.848V21.8c-.026-3.009-1.344-4.677-3.718-4.691a4.582,4.582,0,0,0-4.98,4.839c-.033,4.963,0,9.927,0,14.89Z" transform="translate(-460.431)" fill="#3b4d62"/>
    <path id="Контур_4080" data-name="Контур 4080" d="M103.142,62.764H85.288a5.616,5.616,0,0,0,3.326,5.566c2.984,1.173,5.564.345,8.05-2.674l6.04,3c-3.228,4.926-7.872,6.493-13.328,5.944-5.885-.591-10.072-4.025-11.524-9.148-1.715-6.052.073-12.432,4.506-15.969,5.207-4.159,15.3-3.856,18.98,3C103.049,55.666,103.3,59.084,103.142,62.764Zm-7.715-4.9c-.1-3.518-1.719-5.249-4.766-5.249s-5.083,2.052-5.191,5.249Z" transform="translate(-59.102 -35.79)" fill="#3b4d62"/>
    <path id="Контур_4081" data-name="Контур 4081" d="M405.931,46.9c7.909,0,13.382,5.8,13.37,14.158,0,7.933-5.758,13.865-13.626,13.717-7.614-.143-13.661-4.8-13.665-13.717C392.008,52.593,397.621,46.9,405.931,46.9Zm-6,13.628c.159,1.328.209,2.465.441,3.563a5.26,5.26,0,0,0,4.778,4.565,5.038,5.038,0,0,0,5.395-3.4,12.265,12.265,0,0,0,.115-8.59,4.808,4.808,0,0,0-5.3-3.64,4.986,4.986,0,0,0-4.841,4.14C400.217,58.309,400.1,59.517,399.933,60.528Z" transform="translate(-300.063 -35.899)" fill="#3b4d62"/>
    <path id="Контур_4082" data-name="Контур 4082" d="M198.557,67.815c-1.407,2.2-2.855,4.192-4.016,6.333a3.555,3.555,0,0,1-3.952,2.2,52.987,52.987,0,0,0-5.629-.04l9.258-13.6-8.636-13.056h3.049c1.677,0,3.357.038,5.034-.016a1.482,1.482,0,0,1,1.5.814c1.332,2.2,2.716,4.367,4.177,6.7,1.393-2.226,2.751-4.3,4-6.443a1.88,1.88,0,0,1,1.935-1.077c2.207.068,4.417.021,6.814.021-.314.49-.507.814-.72,1.121-2.385,3.429-4.75,6.873-7.177,10.269a1.488,1.488,0,0,0-.049,2.038c2.744,3.987,5.418,8.02,8.113,12.04.213.319.415.65.762,1.2h-3.27c-1.642,0-3.284-.03-4.926.012a1.478,1.478,0,0,1-1.5-.823C201.815,72.966,200.216,70.478,198.557,67.815Z" transform="translate(-141.578 -37.979)" fill="#3b4d62"/>
    <path id="Контур_4083" data-name="Контур 4083" d="M515.862,29.411H512.29V23.353h3.572c0-1.522.059-2.951-.023-4.37a1.2,1.2,0,0,1,1.013-1.407c2.247-.727,4.473-1.52,6.891-2.346v8.078h5.55v6.077h-5.545V35.6c0,1.876-.028,3.753.012,5.629.049,2.463,1.37,3.35,3.7,2.531.366-.127.7-.3,1.2-.507.582,1.595,1.173,3.15,1.7,4.726a.88.88,0,0,1-.216.769c-3.206,2.5-9.605,2.533-12.289-.593a9.18,9.18,0,0,1-1.982-6.211c-.042-3.711-.012-7.424-.012-11.134Z" transform="translate(-392.13 -11.658)" fill="#3b4d62"/>
    <path id="Контур_4084" data-name="Контур 4084" d="M7.873,74.281H.13V47.788H7.854v4.1c.643-.905,1.079-1.579,1.574-2.2a6.985,6.985,0,0,1,8.444-1.954c.582.281.79.554.575,1.253-.629,2.05-1.154,4.121-1.726,6.218a16.807,16.807,0,0,0-1.694-.65,5.415,5.415,0,0,0-6.934,4.48,12.9,12.9,0,0,0-.211,2.327c-.021,3.868,0,7.74,0,11.6Z" transform="translate(-0.102 -36.02)" fill="#3b4d62"/>
    <path id="Контур_4085" data-name="Контур 4085" d="M315.66,47.819h7.684v3.7l.192.26c2.533-4.391,5.981-5.772,10.656-3.589-.676,2.437-1.316,4.755-1.963,7.1-.584-.235-1.074-.488-1.6-.643a5.419,5.419,0,0,0-7.025,4.609,27.765,27.765,0,0,0-.181,3.619c-.023,3.788,0,7.574,0,11.461H315.66Z" transform="translate(-241.622 -36.108)" fill="#3b4d62"/>
    <path id="Контур_4086" data-name="Контур 4086" d="M86.26,222.5V208.877c2.629.164,5.282-.427,7.832.495a3.342,3.342,0,0,1,.962,5.512c-.164.152-.345.284-.593.49,1.154.619,2.111,1.3,2.266,2.676a3.661,3.661,0,0,1-3.589,4.379c-1.78.152-3.582.056-5.374.068C87.3,222.5,86.839,222.5,86.26,222.5Zm2.074-1.684c1.508,0,2.909.038,4.306-.012a2.2,2.2,0,0,0,.145-4.386c-1.461-.1-2.937-.023-4.457-.023Zm0-6.115c1.372,0,2.615.054,3.854-.016a1.726,1.726,0,0,0,1.82-1.858c.091-1.248-.378-2.024-1.6-2.151a39.241,39.241,0,0,0-4.077-.033Z" transform="translate(-66.029 -159.854)" fill="#3b4d62"/>
    <path id="Контур_4087" data-name="Контур 4087" d="M463.513,234.006h-1.994V228.83c0-.392.014-.783-.016-1.173-.106-1.316-.687-2.01-1.67-2.024a2.08,2.08,0,0,0-2.076,2.111c-.059,1.715-.019,3.436-.028,5.16,0,.342-.035.685-.059,1.091h-1.94v-9.8c.779.143,1.853-.7,2.074.612a8.648,8.648,0,0,1,2.758-.781,9.287,9.287,0,0,1,2.815,1.173,8.664,8.664,0,0,1,1.928-1.086,2.829,2.829,0,0,1,3.887,2.409c.206,2.47.049,4.97.049,7.506h-1.9v-4.883c0-.547.028-1.1-.026-1.642-.091-.966-.436-1.769-1.576-1.839a2.015,2.015,0,0,0-2.076,1.7,22.81,22.81,0,0,0-.141,2.918C463.5,231.464,463.513,232.674,463.513,234.006Z" transform="translate(-348.837 -171.417)" fill="#3b4d62"/>
    <path id="Контур_4088" data-name="Контур 4088" d="M529.657,232.748v4.6H527.68V224.118h1.912c.049.345.1.676.145,1.011.077,0,.176.019.218-.019,2.58-2.3,5.939-1.351,6.776,1.994a8.386,8.386,0,0,1,.164,3.232C536.26,234.5,532.12,235.2,529.657,232.748ZM534.9,229.1c0-2.125-.772-3.4-2.245-3.565a2.449,2.449,0,0,0-2.557,1.26,4.986,4.986,0,0,0,.195,4.783,2.483,2.483,0,0,0,2.829.83C534.36,232.044,534.9,231.019,534.9,229.1Z" transform="translate(-403.91 -171.343)" fill="#3b4d62"/>
    <path id="Контур_4089" data-name="Контур 4089" d="M7.044,209.117q2.369,6.65,4.771,13.389c-2.076.328-2.073.326-2.672-1.471-.16-.469-.333-.955-.53-1.52-1.675,0-3.347-.023-5.02.026-.258,0-.575.3-.739.542a3.985,3.985,0,0,0-.345.99c-.572,1.682-.572,1.682-2.5,1.468q.95-2.653,1.876-5.254L4.232,210.8C4.915,208.911,4.915,208.911,7.044,209.117Zm-1.093,2.611H5.7l-2.064,6.1h4.4Z" transform="translate(-0.01 -159.998)" fill="#3b4d62"/>
    <path id="Контур_4090" data-name="Контур 4090" d="M357.871,212.066l-1.733.626c-.7-1.757-1.715-3.019-3.816-2.852a3.625,3.625,0,0,0-3.31,2.536,7.674,7.674,0,0,0-.082,5.273,3.721,3.721,0,0,0,3.518,2.756c1.623.115,2.7-.612,3.518-2.346l.321-.69,1.611.645c-.518,2.84-3.23,4.536-6.314,4.025a5.655,5.655,0,0,1-4.757-4.119c-1.107-3.413-.138-7.016,2.346-8.772A5.6,5.6,0,0,1,357.871,212.066Z" transform="translate(-265.131 -159.255)" fill="#3b4d62"/>
    <path id="Контур_4091" data-name="Контур 4091" d="M284.619,220.5h-1.944v-5.878c0-1.71-.556-2.465-1.8-2.5a2.333,2.333,0,0,0-2.367,2.517c-.042,1.909,0,3.821,0,5.824H276.56V206.31h1.876v5.465a14.048,14.048,0,0,1,1.321-.938c2.17-1.152,4.579-.07,4.818,2.383C284.8,215.62,284.619,218.033,284.619,220.5Z" transform="translate(-211.693 -157.918)" fill="#3b4d62"/>
    <path id="Контур_4092" data-name="Контур 4092" d="M584.911,233.943c-1.283.235-2.3.11-2.775-.842a16.937,16.937,0,0,1-3.249,1.018,2.629,2.629,0,0,1-2.958-2.085,2.715,2.715,0,0,1,1.8-3.375,34.275,34.275,0,0,1,4.283-.9c-.319-.669-.469-1.642-1-1.963-1.36-.819-2.6,0-3.854.856l-.99-1.22a5.483,5.483,0,0,1,5.845-1.241,3.11,3.11,0,0,1,1.846,3.007c.052,1.128-.023,2.263.026,3.394.033.748-.345,1.684.847,2.036C584.9,232.667,584.855,233.451,584.911,233.943Zm-3.239-4.71a18.752,18.752,0,0,0-3.049.851,1.58,1.58,0,0,0-.652,1.407,1.879,1.879,0,0,0,1.309,1.02c1.785.225,2.674-.915,2.392-3.288Z" transform="translate(-440.777 -171.316)" fill="#3b4d62"/>
    <path id="Контур_4093" data-name="Контур 4093" d="M148.454,229.029c0,3.063-1.97,5.188-4.808,5.191s-4.818-2.111-4.806-5.181a4.8,4.8,0,0,1,4.869-5.139C146.491,223.923,148.457,226.034,148.454,229.029Zm-2.062.019a14.326,14.326,0,0,0-.27-1.482,2.517,2.517,0,0,0-2.411-2.022,2.465,2.465,0,0,0-2.524,2.027,7.6,7.6,0,0,0-.052,2.763,2.436,2.436,0,0,0,2.449,2.242,2.579,2.579,0,0,0,2.58-2.127q.144-.694.218-1.4Z" transform="translate(-106.276 -171.382)" fill="#3b4d62"/>
    <path id="Контур_4094" data-name="Контур 4094" d="M403.34,229.121c0-3.084,1.916-5.188,4.771-5.212a4.8,4.8,0,0,1,4.834,5.048c.026,3.106-1.984,5.282-4.86,5.27C405.287,234.213,403.349,232.14,403.34,229.121Zm7.569.014a14.779,14.779,0,0,0-.366-1.745,2.431,2.431,0,0,0-2.31-1.834,2.328,2.328,0,0,0-2.5,1.876,9.277,9.277,0,0,0,.045,3.432,2.184,2.184,0,0,0,2.247,1.719,2.389,2.389,0,0,0,2.446-1.642A13.673,13.673,0,0,0,410.909,229.135Z" transform="translate(-308.736 -171.389)" fill="#3b4d62"/>
    <path id="Контур_4095" data-name="Контур 4095" d="M626.744,233.913H624.76v-9.788h1.893c.042.253.094.579.155.938.087-.028.218-.028.277-.094a3.385,3.385,0,0,1,3.835-.938,2.872,2.872,0,0,1,1.982,2.892c.087,2.287.026,4.579.026,6.945h-1.965v-4.994c0-.389.014-.781,0-1.173-.084-1.44-.65-2.13-1.776-2.191a2.234,2.234,0,0,0-2.385,2.217c-.089,1.518-.038,3.049-.045,4.565C626.742,232.8,626.744,233.3,626.744,233.913Z" transform="translate(-478.22 -171.311)" fill="#3b4d62"/>
    <path id="Контур_4096" data-name="Контур 4096" d="M667.166,237.382l.544-1.234.138.307c.732-.167,1.642-.115,2.146-.547a2.231,2.231,0,0,0,.291-2.693c-1.013-2.449-1.931-4.926-2.883-7.407-.136-.356-.235-.722-.373-1.093,2.027-.373,2.027-.373,2.672,1.407.626,1.717,1.253,3.436,2,5.491.495-1.48.891-2.674,1.292-3.868.2-.591.415-1.173.612-1.769.535-1.6.532-1.6,2.446-1.253-.263.741-.514,1.471-.776,2.193-1.1,3.049-2.165,6.1-3.317,9.113A2.971,2.971,0,0,1,667.166,237.382Z" transform="translate(-510.575 -171.856)" fill="#3b4d62"/>
    <path id="Контур_4097" data-name="Контур 4097" d="M186.63,232.32l1.311-1.189a3.275,3.275,0,0,0,3.781,1.217,1.616,1.616,0,0,0,.99-1.06c.033-.389-.469-.938-.858-1.133a19.836,19.836,0,0,0-2.346-.7c-1.668-.532-2.36-1.466-2.247-2.977a2.75,2.75,0,0,1,2.608-2.561,4.9,4.9,0,0,1,4.548,1.292l-.938,1.079a13.778,13.778,0,0,0-2.833-.753,1.772,1.772,0,0,0-1.386.889c-.319.809.429,1.128,1.1,1.323.858.251,1.745.427,2.58.737a2.536,2.536,0,0,1,1.8,2.7,2.735,2.735,0,0,1-1.827,2.608A5.679,5.679,0,0,1,186.63,232.32Z" transform="translate(-142.857 -171.319)" fill="#3b4d62"/>
    <path id="Контур_4098" data-name="Контур 4098" d="M238.21,226.174l-1.522.938c-.195-.235-.385-.448-.572-.673a2.352,2.352,0,0,0-3.987.354,4.731,4.731,0,0,0-.012,4.5,2.567,2.567,0,0,0,4.013.549,11.526,11.526,0,0,0,.8-.938l1.384.767c-.643,1.79-2.421,2.737-4.635,2.5a4.606,4.606,0,0,1-4.107-4.264c-.3-2.674.858-4.973,2.871-5.716A4.593,4.593,0,0,1,238.21,226.174Z" transform="translate(-175.688 -171.337)" fill="#3b4d62"/>
  </g>
</svg>
