<svg xmlns="http://www.w3.org/2000/svg" width="152" height="23.245" viewBox="0 0 152 23.245">
  <path id="logo" d="M7.739,24.245V18.01c0-2.242.383-4.1,2.571-4.1,1.914,0,2.461,1.094,2.461,3.829v6.509h7.439V18.01c0-2.242.383-4.1,2.571-4.1,1.914,0,2.461,1.094,2.461,3.829v6.509H32.57V16.26c0-5.087-1.7-8.15-7.11-8.15a7.412,7.412,0,0,0-6.4,3.391c-.875-1.969-2.735-3.391-6.071-3.391a7.608,7.608,0,0,0-5.907,3.282V8.657H.3V24.245Zm142.582,0a7.309,7.309,0,0,0,1.32-2.625h-7a3.031,3.031,0,0,1-2.789,1.641,3.6,3.6,0,0,1-3.665-3.665H152.3c.109-6.727-4.047-11.486-10.939-11.486C135.4,8.11,130.8,11.994,130.8,18.12a9.347,9.347,0,0,0,2.052,6.126ZM141.632,12.6a3.355,3.355,0,0,1,3.282,3.227h-6.728C138.186,13.853,139.444,12.6,141.632,12.6Zm-37.466,11.65V18.01c0-2.242.383-4.1,2.571-4.1,1.914,0,2.461,1.094,2.461,3.829v6.509h7.384V18.01c0-2.242.383-4.1,2.571-4.1,1.914,0,2.461,1.094,2.461,3.829v6.509H129V16.26c0-5.087-1.7-8.15-7.11-8.15a7.412,7.412,0,0,0-6.4,3.391c-.875-1.969-2.735-3.391-6.071-3.391a7.608,7.608,0,0,0-5.907,3.282V8.657H96.782V24.245Zm-61.537,0a3.92,3.92,0,0,0,.06-.656,4.121,4.121,0,0,0-4.212-4.1,3.994,3.994,0,0,0-3.883,3.993,4.3,4.3,0,0,0,.071.766Zm24.071,0V20.8c0-3.993,1.531-5.415,4.54-5.415a14.744,14.744,0,0,1,1.531.219V8.22a6.027,6.027,0,0,0-.985-.109c-2.844,0-4.649,1.422-5.688,4.321h-.055V8.657H59.316V24.245Zm-19.362,0h7.384V12.924h3.063V8.6H54.722c-.219-2.954.656-2.954,3.063-2.954V1H54.612c-4.7,0-7.274,1.094-7.274,7.657H44.877v4.212h2.461Zm25.925-2.078a5.863,5.863,0,0,0,.359,2.078H93.938V15.822c0-4.43-.547-7.712-9.353-7.712-7.384,0-10.173,2.3-10.173,6.235h7.11c.164-1.586,1.531-1.8,2.571-1.8.766,0,2.407.164,2.407,1.531C86.5,17.573,73.263,13.744,73.263,22.167Zm9.9,1.422c-1.477,0-2.352-.656-2.352-1.586,0-2.407,3.227-1.86,5.634-3.008C86.609,21.565,85.788,23.589,83.163,23.589ZM38.587,16.916a4.039,4.039,0,0,0,4.1-3.993,4.121,4.121,0,0,0-4.212-4.1,3.994,3.994,0,0,0-3.883,3.993A4.04,4.04,0,0,0,38.587,16.916Z" transform="translate(-0.3 -1)" fill="#3b4d62"/>
</svg>
